<?xml version="1.0" encoding="UTF-8" standalone="no"?>
<!DOCTYPE svg PUBLIC "-//W3C//DTD SVG 1.1//EN" "http://www.w3.org/Graphics/SVG/1.1/DTD/svg11.dtd">
<svg version="1.1" xmlns="http://www.w3.org/2000/svg" xmlns:xlink="http://www.w3.org/1999/xlink" preserveAspectRatio="xMidYMid meet" viewBox="0 0 1200 640" width="1200" height="640"><defs><path d="M582.34 320.36C582.34 351.77 556.85 377.27 525.44 377.27C494.03 377.27 468.54 351.77 468.54 320.36C468.54 288.96 494.03 263.46 525.44 263.46C556.85 263.46 582.34 288.96 582.34 320.36Z" id="cgsSfrTC7"></path><path d="M224.52 241.36C224.52 281.74 191.73 314.52 151.35 314.52C110.98 314.52 78.19 281.74 78.19 241.36C78.19 200.98 110.98 168.2 151.35 168.2C191.73 168.2 224.52 200.98 224.52 241.36Z" id="dW3lylnPk"></path><path d="M301.17 398.08C301.17 412.89 289.15 424.91 274.35 424.91C259.54 424.91 247.52 412.89 247.52 398.08C247.52 383.27 259.54 371.25 274.35 371.25C289.15 371.25 301.17 383.27 301.17 398.08Z" id="fMZXemrMZ"></path><path d="M404.36 248.42C404.36 267.71 388.7 283.37 369.41 283.37C350.12 283.37 334.45 267.71 334.45 248.42C334.45 229.12 350.12 213.46 369.41 213.46C388.7 213.46 404.36 229.12 404.36 248.42Z" id="a3GjFJ9VRD"></path><path d="M600.33 168.66C600.33 196.93 577.38 219.88 549.11 219.88C520.85 219.88 497.9 196.93 497.9 168.66C497.9 140.4 520.85 117.45 549.11 117.45C577.38 117.45 600.33 140.4 600.33 168.66Z" id="bHhydhyLR"></path><path d="M749.14 209.8C749.14 218.32 742.22 225.25 733.69 225.25C725.17 225.25 718.25 218.32 718.25 209.8C718.25 201.28 725.17 194.35 733.69 194.35C742.22 194.35 749.14 201.28 749.14 209.8Z" id="e7gXEFskNF"></path><path d="M1076.79 227.68C1076.79 299.02 1018.88 356.94 947.54 356.94C876.2 356.94 818.29 299.02 818.29 227.68C818.29 156.35 876.2 98.43 947.54 98.43C1018.88 98.43 1076.79 156.35 1076.79 227.68Z" id="bKft3nRc0"></path><path d="M787.35 401.36C787.35 435.89 759.31 463.93 724.78 463.93C690.24 463.93 662.21 435.89 662.21 401.36C662.21 366.82 690.24 338.79 724.78 338.79C759.31 338.79 787.35 366.82 787.35 401.36Z" id="d1fjnEISQ"></path><path d="M975.18 494C975.18 511.94 960.62 526.5 942.69 526.5C924.75 526.5 910.19 511.94 910.19 494C910.19 476.07 924.75 461.51 942.69 461.51C960.62 461.51 975.18 476.07 975.18 494Z" id="aLJKKYvON"></path><path d="M953.19 225.91L727.97 205.26L720.69 396.89L516.95 317.81L334.18 249.61L219.85 240.93" id="aOPx9SEi"></path><path d="" id="a3N9TH7Ban"></path><path d="M733.69 209.8L549.11 168.66L517.31 320.36L274.35 398.08L168.62 240.7" id="b28RLmrfxz"></path><path d="M493.79 488.66C493.79 505.25 480.32 518.72 463.73 518.72C447.15 518.72 433.68 505.25 433.68 488.66C433.68 472.08 447.15 458.61 463.73 458.61C480.32 458.61 493.79 472.08 493.79 488.66Z" id="a1hulKCvcq"></path><path d="M942.69 488.66L728.67 406.53L458.78 488.66L274.35 398.08" id="bY5JmrUEP"></path><path d="M718.25 401.36L957.91 227.68" id="bjZYSWXHe"></path><path d="M118.62 77.56L374.29 256.63" id="e2lH7rK3Zs"></path><path d="M544.95 168.66L374.29 252.08" id="a30B2FhX7a"></path><path d="M975.18 232.57L535.2 314.52" id="a1hozVbVOy"></path><path d="" id="fwa7EBHxR"></path><path d="M463.73 476.44L525.44 325.24L179.14 256.63" id="b4CocjIcuf"></path><path d="M179.14 542.21C179.14 582.59 146.36 615.37 105.98 615.37C65.6 615.37 32.81 582.59 32.81 542.21C32.81 501.83 65.6 469.04 105.98 469.04C146.36 469.04 179.14 501.83 179.14 542.21Z" id="a45oVtwmw6"></path><path d="M708.93 581.46C708.93 603.13 691.34 620.72 669.67 620.72C648.01 620.72 630.42 603.13 630.42 581.46C630.42 559.8 648.01 542.21 669.67 542.21C691.34 542.21 708.93 559.8 708.93 581.46Z" id="d4PBrVnPYf"></path><path d="M1180.51 545.3C1180.51 587.38 1146.34 621.55 1104.25 621.55C1062.17 621.55 1028 587.38 1028 545.3C1028 503.21 1062.17 469.04 1104.25 469.04C1146.34 469.04 1180.51 503.21 1180.51 545.3Z" id="bZyN4aig"></path><path d="M1165.71 71.6C1165.71 86.41 1153.69 98.43 1138.88 98.43C1124.08 98.43 1112.06 86.41 1112.06 71.6C1112.06 56.8 1124.08 44.78 1138.88 44.78C1153.69 44.78 1165.71 56.8 1165.71 71.6Z" id="a992BqSFs"></path><path d="M168.62 67.95C168.62 95.54 146.22 117.94 118.62 117.94C91.03 117.94 68.63 95.54 68.63 67.95C68.63 40.35 91.03 17.95 118.62 17.95C146.22 17.95 168.62 40.35 168.62 67.95Z" id="b1u1SToFYn"></path><path d="M269.76 406.32L130.14 526.5" id="a2r80Jdun"></path><path d="M953.19 227.68L1076.79 518.72L942.69 494" id="bxnAvTnXb"></path><path d="M1142.77 71.6L953.19 227.68" id="a2DHBgpZH"></path><path d="M123.04 534.87L459.62 488.66L669.67 581.46L942.69 488.66L942.69 225.25" id="a5AymbLog"></path><path d="M718.25 406.32L662.21 581.46L105.98 549.39" id="b1ROF0DEw"></path><path d="M544.95 167.1L123.04 71.6" id="c29KS134Rb"></path><path d="M755.19 55.43C755.19 82.36 733.32 104.22 706.39 104.22C679.46 104.22 657.6 82.36 657.6 55.43C657.6 28.5 679.46 6.63 706.39 6.63C733.32 6.63 755.19 28.5 755.19 55.43Z" id="enaDguvfT"></path><path d="M733.69 210.37L706.39 51.28L549.11 168.2" id="duTjMLaFL"></path></defs><g><g><g><use xlink:href="#cgsSfrTC7" opacity="1" fill="#e0eaed" fill-opacity="1"></use></g><g><use xlink:href="#dW3lylnPk" opacity="1" fill="#e0eaed" fill-opacity="1"></use></g><g><use xlink:href="#fMZXemrMZ" opacity="1" fill="#e0eaed" fill-opacity="1"></use></g><g><use xlink:href="#a3GjFJ9VRD" opacity="1" fill="#e0eaed" fill-opacity="1"></use></g><g><use xlink:href="#bHhydhyLR" opacity="1" fill="#e0eaed" fill-opacity="1"></use></g><g><use xlink:href="#e7gXEFskNF" opacity="1" fill="#e0eaed" fill-opacity="1"></use></g><g><use xlink:href="#bKft3nRc0" opacity="1" fill="#e0eaed" fill-opacity="1"></use></g><g><use xlink:href="#d1fjnEISQ" opacity="1" fill="#e0eaed" fill-opacity="1"></use></g><g><use xlink:href="#aLJKKYvON" opacity="1" fill="#e0eaed" fill-opacity="1"></use></g><g><g><use xlink:href="#aOPx9SEi" opacity="1" fill-opacity="0" stroke="#e0eaed" stroke-width="3" stroke-opacity="1"></use></g></g><g><g><use xlink:href="#a3N9TH7Ban" opacity="1" fill-opacity="0" stroke="#e0eaed" stroke-width="3" stroke-opacity="1"></use></g></g><g><g><use xlink:href="#b28RLmrfxz" opacity="1" fill-opacity="0" stroke="#e0eaed" stroke-width="3" stroke-opacity="1"></use></g></g><g><use xlink:href="#a1hulKCvcq" opacity="1" fill="#e0eaed" fill-opacity="1"></use></g><g><g><use xlink:href="#bY5JmrUEP" opacity="1" fill-opacity="0" stroke="#e0eaed" stroke-width="3" stroke-opacity="1"></use></g></g><g><g><use xlink:href="#bjZYSWXHe" opacity="1" fill-opacity="0" stroke="#e0eaed" stroke-width="3" stroke-opacity="1"></use></g></g><g><g><use xlink:href="#e2lH7rK3Zs" opacity="1" fill-opacity="0" stroke="#e0eaed" stroke-width="3" stroke-opacity="1"></use></g></g><g><g><use xlink:href="#a30B2FhX7a" opacity="1" fill-opacity="0" stroke="#e0eaed" stroke-width="3" stroke-opacity="1"></use></g></g><g><g><use xlink:href="#a1hozVbVOy" opacity="1" fill-opacity="0" stroke="#e0eaed" stroke-width="3" stroke-opacity="1"></use></g></g><g><g><use xlink:href="#fwa7EBHxR" opacity="1" fill-opacity="0" stroke="#e0eaed" stroke-width="3" stroke-opacity="1"></use></g></g><g><g><use xlink:href="#b4CocjIcuf" opacity="1" fill-opacity="0" stroke="#e0eaed" stroke-width="3" stroke-opacity="1"></use></g></g><g><use xlink:href="#a45oVtwmw6" opacity="1" fill="#e0eaed" fill-opacity="1"></use></g><g><use xlink:href="#d4PBrVnPYf" opacity="1" fill="#e0eaed" fill-opacity="1"></use></g><g><use xlink:href="#bZyN4aig" opacity="1" fill="#e0eaed" fill-opacity="1"></use></g><g><use xlink:href="#a992BqSFs" opacity="1" fill="#e0eaed" fill-opacity="1"></use></g><g><use xlink:href="#b1u1SToFYn" opacity="1" fill="#e0eaed" fill-opacity="1"></use></g><g><g><use xlink:href="#a2r80Jdun" opacity="1" fill-opacity="0" stroke="#e0eaed" stroke-width="3" stroke-opacity="1"></use></g></g><g><g><use xlink:href="#bxnAvTnXb" opacity="1" fill-opacity="0" stroke="#e0eaed" stroke-width="3" stroke-opacity="1"></use></g></g><g><g><use xlink:href="#a2DHBgpZH" opacity="1" fill-opacity="0" stroke="#e0eaed" stroke-width="3" stroke-opacity="1"></use></g></g><g><g><use xlink:href="#a5AymbLog" opacity="1" fill-opacity="0" stroke="#e0eaed" stroke-width="3" stroke-opacity="1"></use></g></g><g><g><use xlink:href="#b1ROF0DEw" opacity="1" fill-opacity="0" stroke="#e0eaed" stroke-width="3" stroke-opacity="1"></use></g></g><g><g><use xlink:href="#c29KS134Rb" opacity="1" fill-opacity="0" stroke="#e0eaed" stroke-width="3" stroke-opacity="1"></use></g></g><g><use xlink:href="#enaDguvfT" opacity="1" fill="#e0eaed" fill-opacity="1"></use></g><g><g><use xlink:href="#duTjMLaFL" opacity="1" fill-opacity="0" stroke="#e0eaed" stroke-width="3" stroke-opacity="1"></use></g></g></g></g></svg>